<mxfile host="app.diagrams.net" modified="2023-05-16T01:05:37.271Z" agent="Mozilla/5.0 (X11; Linux x86_64) AppleWebKit/537.36 (KHTML, like Gecko) Chrome/113.0.0.0 Safari/537.36" etag="jvnB4VLhoXee3iz7tCJs" version="21.2.1" type="device">
  <diagram name="Page-1" id="lcW5cUqERm6JRBvPaZT-">
    <mxGraphModel dx="1434" dy="834" grid="1" gridSize="10" guides="1" tooltips="1" connect="1" arrows="1" fold="1" page="1" pageScale="1" pageWidth="850" pageHeight="1100" math="0" shadow="0">
      <root>
        <mxCell id="0" />
        <mxCell id="1" parent="0" />
        <mxCell id="INMTfnJVZ24HSqwzk3t3-11" style="edgeStyle=orthogonalEdgeStyle;rounded=0;orthogonalLoop=1;jettySize=auto;html=1;entryX=0.5;entryY=0;entryDx=0;entryDy=0;" parent="1" source="INMTfnJVZ24HSqwzk3t3-1" target="INMTfnJVZ24HSqwzk3t3-2" edge="1">
          <mxGeometry relative="1" as="geometry" />
        </mxCell>
        <mxCell id="INMTfnJVZ24HSqwzk3t3-16" style="edgeStyle=orthogonalEdgeStyle;rounded=0;orthogonalLoop=1;jettySize=auto;html=1;" parent="1" source="INMTfnJVZ24HSqwzk3t3-1" edge="1">
          <mxGeometry relative="1" as="geometry">
            <mxPoint x="580" y="225" as="targetPoint" />
          </mxGeometry>
        </mxCell>
        <mxCell id="INMTfnJVZ24HSqwzk3t3-17" value="&lt;i&gt;Cancel&lt;/i&gt;" style="edgeLabel;html=1;align=center;verticalAlign=middle;resizable=0;points=[];" parent="INMTfnJVZ24HSqwzk3t3-16" vertex="1" connectable="0">
          <mxGeometry x="-0.2684" y="1" relative="1" as="geometry">
            <mxPoint x="8" y="1" as="offset" />
          </mxGeometry>
        </mxCell>
        <mxCell id="INMTfnJVZ24HSqwzk3t3-1" value="PRE-CHARGE" style="rounded=0;whiteSpace=wrap;html=1;" parent="1" vertex="1">
          <mxGeometry x="365" y="210" width="120" height="30" as="geometry" />
        </mxCell>
        <mxCell id="INMTfnJVZ24HSqwzk3t3-5" style="edgeStyle=orthogonalEdgeStyle;rounded=0;orthogonalLoop=1;jettySize=auto;html=1;entryX=0.5;entryY=0;entryDx=0;entryDy=0;" parent="1" target="INMTfnJVZ24HSqwzk3t3-3" edge="1">
          <mxGeometry relative="1" as="geometry">
            <mxPoint x="425" y="320" as="sourcePoint" />
          </mxGeometry>
        </mxCell>
        <mxCell id="INMTfnJVZ24HSqwzk3t3-19" style="edgeStyle=orthogonalEdgeStyle;rounded=0;orthogonalLoop=1;jettySize=auto;html=1;entryX=1.002;entryY=0.63;entryDx=0;entryDy=0;entryPerimeter=0;" parent="1" source="INMTfnJVZ24HSqwzk3t3-2" target="INMTfnJVZ24HSqwzk3t3-13" edge="1">
          <mxGeometry relative="1" as="geometry">
            <Array as="points">
              <mxPoint x="580" y="305" />
              <mxPoint x="580" y="519" />
            </Array>
          </mxGeometry>
        </mxCell>
        <mxCell id="INMTfnJVZ24HSqwzk3t3-20" value="&lt;i&gt;Abort&lt;/i&gt;" style="edgeLabel;html=1;align=center;verticalAlign=middle;resizable=0;points=[];" parent="INMTfnJVZ24HSqwzk3t3-19" vertex="1" connectable="0">
          <mxGeometry x="-0.852" relative="1" as="geometry">
            <mxPoint x="8" as="offset" />
          </mxGeometry>
        </mxCell>
        <mxCell id="INMTfnJVZ24HSqwzk3t3-2" value="COMMAND (0)" style="rounded=0;whiteSpace=wrap;html=1;" parent="1" vertex="1">
          <mxGeometry x="365" y="290" width="120" height="30" as="geometry" />
        </mxCell>
        <mxCell id="INMTfnJVZ24HSqwzk3t3-6" style="edgeStyle=orthogonalEdgeStyle;rounded=0;orthogonalLoop=1;jettySize=auto;html=1;entryX=0.5;entryY=0;entryDx=0;entryDy=0;dashed=1;" parent="1" source="INMTfnJVZ24HSqwzk3t3-3" target="INMTfnJVZ24HSqwzk3t3-4" edge="1">
          <mxGeometry relative="1" as="geometry" />
        </mxCell>
        <mxCell id="INMTfnJVZ24HSqwzk3t3-9" value="&lt;i&gt;Complete(s)&lt;/i&gt;" style="edgeLabel;html=1;align=center;verticalAlign=middle;resizable=0;points=[];" parent="INMTfnJVZ24HSqwzk3t3-6" vertex="1" connectable="0">
          <mxGeometry x="-0.0429" y="1" relative="1" as="geometry">
            <mxPoint x="-1" as="offset" />
          </mxGeometry>
        </mxCell>
        <mxCell id="INMTfnJVZ24HSqwzk3t3-21" value="&lt;i&gt;Gas exhausted&lt;/i&gt;" style="edgeStyle=orthogonalEdgeStyle;rounded=0;orthogonalLoop=1;jettySize=auto;html=1;endArrow=none;endFill=0;" parent="1" source="INMTfnJVZ24HSqwzk3t3-3" edge="1">
          <mxGeometry x="-0.0725" relative="1" as="geometry">
            <mxPoint x="580" y="365" as="targetPoint" />
            <mxPoint as="offset" />
          </mxGeometry>
        </mxCell>
        <mxCell id="INMTfnJVZ24HSqwzk3t3-3" value="COMMAND (1)" style="rounded=0;whiteSpace=wrap;html=1;" parent="1" vertex="1">
          <mxGeometry x="365" y="350" width="120" height="30" as="geometry" />
        </mxCell>
        <mxCell id="INMTfnJVZ24HSqwzk3t3-14" style="edgeStyle=orthogonalEdgeStyle;rounded=0;orthogonalLoop=1;jettySize=auto;html=1;entryX=0.5;entryY=0;entryDx=0;entryDy=0;" parent="1" source="INMTfnJVZ24HSqwzk3t3-4" target="INMTfnJVZ24HSqwzk3t3-13" edge="1">
          <mxGeometry relative="1" as="geometry" />
        </mxCell>
        <mxCell id="INMTfnJVZ24HSqwzk3t3-22" value="" style="edgeStyle=orthogonalEdgeStyle;rounded=0;orthogonalLoop=1;jettySize=auto;html=1;endArrow=none;endFill=0;" parent="1" source="INMTfnJVZ24HSqwzk3t3-4" edge="1">
          <mxGeometry relative="1" as="geometry">
            <mxPoint x="580" y="435" as="targetPoint" />
          </mxGeometry>
        </mxCell>
        <mxCell id="INMTfnJVZ24HSqwzk3t3-4" value="COMMAND (n)" style="rounded=0;whiteSpace=wrap;html=1;" parent="1" vertex="1">
          <mxGeometry x="365" y="420" width="120" height="30" as="geometry" />
        </mxCell>
        <mxCell id="INMTfnJVZ24HSqwzk3t3-13" value="CHARGE" style="rounded=0;whiteSpace=wrap;html=1;" parent="1" vertex="1">
          <mxGeometry x="365" y="500" width="120" height="30" as="geometry" />
        </mxCell>
        <mxCell id="igKO3JtxCjPalMc5QqzQ-1" value="&lt;i&gt;Complete&lt;/i&gt;" style="edgeLabel;html=1;align=center;verticalAlign=middle;resizable=0;points=[];" vertex="1" connectable="0" parent="1">
          <mxGeometry x="425" y="330" as="geometry" />
        </mxCell>
        <mxCell id="igKO3JtxCjPalMc5QqzQ-2" value="&lt;i&gt;Complete&lt;br&gt;&lt;br&gt;&lt;/i&gt;" style="edgeLabel;html=1;align=center;verticalAlign=middle;resizable=0;points=[];" vertex="1" connectable="0" parent="1">
          <mxGeometry x="425" y="480" as="geometry" />
        </mxCell>
      </root>
    </mxGraphModel>
  </diagram>
</mxfile>
